HIERARCHY
ROOT RootJoint
{
    OFFSET   0.000000   0.000000   0.000000
    CHANNELS 6 Xposition Yposition Zposition Xrotation Yrotation Zrotation
    JOINT pelvis_lowerback
    {
        OFFSET   0.000000   0.093605   0.000000
        CHANNELS 3 Xrotation Yrotation Zrotation
        JOINT lowerback_torso
        {
            OFFSET   0.000000   0.100000   0.000000
            CHANNELS 3 Xrotation Yrotation Zrotation
            JOINT torso_head
            {
                OFFSET   0.000000   0.282350   0.000000
                CHANNELS 3 Xrotation Yrotation Zrotation
                End Site
                {
                    OFFSET   0.000000   0.192650   0.000000
                }
            }
            JOINT rTorso_Clavicle
            {
                OFFSET  -0.001000   0.157500   0.000000
                CHANNELS 3 Xrotation Yrotation Zrotation
                JOINT rShoulder
                {
                    OFFSET  -0.117647   0.000000   0.000000
                    CHANNELS 3 Xrotation Yrotation Zrotation
                    JOINT rElbow
                    {
                        OFFSET  -0.245000   0.000000   0.000000
                        CHANNELS 3 Xrotation Yrotation Zrotation
                        JOINT rWrist
                        {
                            OFFSET  -0.240000   0.000000   0.000000
                            CHANNELS 3 Xrotation Yrotation Zrotation
                            End Site
                            {
                                OFFSET  -0.116353  -0.002500   0.000000
                            }
                        }
                    }
                }
            }
            JOINT lTorso_Clavicle
            {
                OFFSET   0.001000   0.157500   0.000000
                CHANNELS 3 Xrotation Yrotation Zrotation
                JOINT lShoulder
                {
                    OFFSET   0.117647   0.000000   0.000000
                    CHANNELS 3 Xrotation Yrotation Zrotation
                    JOINT lElbow
                    {
                        OFFSET   0.245000   0.000000   0.000000
                        CHANNELS 3 Xrotation Yrotation Zrotation
                        JOINT lWrist
                        {
                            OFFSET   0.240000   0.000000   0.000000
                            CHANNELS 3 Xrotation Yrotation Zrotation
                            End Site
                            {
                                OFFSET   0.116353  -0.002500   0.000000
                            }
                        }
                    }
                }
            }
        }
    }
    JOINT rHip
    {
        OFFSET  -0.100000  -0.051395   0.000000
        CHANNELS 3 Xrotation Yrotation Zrotation
        JOINT rKnee
        {
            OFFSET   0.000000  -0.410000   0.000000
            CHANNELS 3 Xrotation Yrotation Zrotation
            JOINT rAnkle
            {
                OFFSET   0.000000  -0.390000   0.000000
                CHANNELS 3 Xrotation Yrotation Zrotation
                JOINT rToeJoint
                {
                    OFFSET   0.000000  -0.050000   0.130000
                    CHANNELS 3 Xrotation Yrotation Zrotation
                    End Site
                    {
                        OFFSET  -0.010000   0.002000   0.060000
                    }
                }
            }
        }
    }
    JOINT lHip
    {
        OFFSET   0.100000  -0.051395   0.000000
        CHANNELS 3 Xrotation Yrotation Zrotation
        JOINT lKnee
        {
            OFFSET   0.000000  -0.410000   0.000000
            CHANNELS 3 Xrotation Yrotation Zrotation
            JOINT lAnkle
            {
                OFFSET   0.000000  -0.390000   0.000000
                CHANNELS 3 Xrotation Yrotation Zrotation
                JOINT lToeJoint
                {
                    OFFSET   0.000000  -0.050000   0.130000
                    CHANNELS 3 Xrotation Yrotation Zrotation
                    End Site
                    {
                        OFFSET   0.010000   0.002000   0.060000
                    }
                }
            }
        }
    }
}
MOTION
Frames: 12
Frame Time:   0.008333
 -2.376719   0.925631   3.975860   0.000000   0.000000   0.000000   0.000000   0.000000   0.000000   0.000000   0.000000   0.000000   0.000000   0.000000   0.000000   0.000000   0.000000   0.000000   0.000000   0.000000   0.000000   0.000000   0.000000   0.000000   0.000000   0.000000   0.000000   0.000000   0.000000   0.000000   0.000000   0.000000   0.000000   0.000000   0.000000   0.000000   0.000000   0.000000   0.000000   0.000000   0.000000   0.000000   0.000000   0.000000   0.000000   0.000000   0.000000   0.000000   0.000000   0.000000   0.000000   0.000000   0.000000   0.000000   0.000000   0.000000   0.000000   0.000000   0.000000   0.000000   0.000000   0.000000   0.000000
 -2.376505   0.926100   3.976397  -1.811011  -0.095029  -0.047308   1.912761   0.108900   0.089320   0.257515  -0.159694   0.022409  -0.208116   0.050231   0.007167   0.083399   0.028217   0.321858   1.332115   0.680059   1.823085   0.026586   1.356430  -0.021403   0.466967  -1.391254  -2.470100   0.100113   0.113360  -0.437249   1.504982  -0.239472  -1.882954   0.038927  -1.947187   0.034117   0.398835   1.330973   2.603858   1.819602  -0.165647  -0.120976   0.619141   0.000885  -0.001421  -0.912730  -0.234946   0.087969  -0.025129  -0.000017   0.000109   1.808620   0.265086   0.165527   0.976820  -0.001021   0.001446  -1.142792   0.349461   0.140591   0.290486  -0.000663   0.001312
 -2.376213   0.926934   3.976815  -3.700392  -0.249278  -0.109224   3.720000   0.230575   0.196645   0.638940  -0.298700   0.061267  -0.369000   0.094449   0.024064   0.167549   0.339125   1.275629   2.606584   1.651632   4.148956   0.063654   2.742286  -0.038152   0.969674  -2.177803  -4.294606   0.207862  -0.032809  -1.530660   2.961106  -0.767985  -4.302474   0.091746  -3.887733   0.060591   0.845582   1.955320   4.550602   3.631905  -0.352438  -0.373379   1.368701   0.002619  -0.003447  -1.763621  -0.462116   0.164973  -0.089323  -0.000141   0.000406   3.673583   0.549143   0.447643   2.130601  -0.003104   0.002496  -2.205604   0.681947   0.281349   0.526836  -0.001294   0.001995
 -2.375880   0.927755   3.977122  -5.509721  -0.429204  -0.181244   5.389775   0.350363   0.308566   0.994408  -0.423601   0.108895  -0.528080   0.135088   0.044322   0.228085   0.826315   2.618342   3.802463   2.827197   6.796101   0.101711   4.095011  -0.049675   1.468350  -2.543866  -5.384150   0.295739  -0.359825  -3.013201   4.352121  -1.516082  -7.057249   0.144907  -5.756266   0.079331   1.291490   2.155349   5.741067   5.318682  -0.550167  -0.734753   2.093052   0.004553  -0.005315  -2.556069  -0.677704   0.232344  -0.149457  -0.000294   0.000638   5.468661   0.835236   0.818884   3.262575  -0.005597   0.003164  -3.195058   0.991375   0.419734   0.747838  -0.001918   0.002388
 -2.375551   0.928277   3.977373  -7.213446  -0.619348  -0.260632   6.935848   0.461474   0.416421   1.307748  -0.543192   0.154033  -0.691471   0.172901   0.067815   0.259961   1.409726   4.189613   4.913479   4.156869   9.657486   0.135790   5.395156  -0.057153   1.963947  -2.638824  -5.920754   0.357382  -0.798037  -4.739379   5.634969  -2.410743  -9.946298   0.191186  -7.539260   0.091715   1.737047   2.082341   6.326533   6.871485  -0.755382  -1.180123   2.764346   0.006329  -0.006821  -3.296221  -0.881540   0.291184  -0.210754  -0.000466   0.000834   7.174276   1.122145   1.260035   4.334956  -0.008101   0.003660  -4.119121   1.279018   0.554935   0.946224  -0.002449   0.002569
 -2.375271   0.928277   3.977616  -8.810018  -0.813669  -0.345238   8.372319   0.561291   0.512606   1.585496  -0.661482   0.187293  -0.855737   0.208083   0.093735   0.262709   2.035135   5.882248   5.935415   5.604569  12.662494   0.163530   6.632434  -0.061638   2.452135  -2.564275  -6.074007   0.391141  -1.296244  -6.610978   6.778640  -3.383373 -12.812617   0.227132  -9.230731   0.098959   2.177661   1.830047   6.463693   8.297865  -0.965229  -1.686763   3.382012   0.007787  -0.007955  -3.987925  -1.073753   0.342545  -0.273158  -0.000642   0.000996   8.788983   1.408877   1.755891   5.343596  -0.010403   0.004067  -4.982703   1.546348   0.686389   1.122851  -0.002861   0.002605
 -2.375025   0.927581   3.977888 -10.303142  -1.005126  -0.436758   9.711298   0.652510   0.600973   1.836809  -0.775231   0.221930  -1.017627   0.240352   0.115040   0.240580   2.675483   7.665710   6.819996   7.077396  15.637797   0.183682   7.806647  -0.063395   2.930193  -2.362560  -5.904967   0.397270  -1.820036  -8.543668   7.791869  -4.399557 -15.601869   0.252123 -10.828424   0.102472   2.606855   1.465397   6.305028   9.608411  -1.177462  -2.236469   3.950266   0.008900  -0.008738  -4.634340  -1.254606   0.387424  -0.335396  -0.000808   0.001121  10.314357   1.693928   2.292423   6.291101  -0.012346   0.004436  -5.789865   1.794756   0.813722   1.280048  -0.003146   0.002550
 -2.374736   0.925539   3.977684 -11.012450  -1.215636  -0.617495  10.186158   0.756953   0.809403   2.104759  -0.831889   0.301594  -1.217230   0.183514   0.029592   0.416606   3.351006   8.958201   7.950926   8.535467  18.260330   0.196894   9.060902  -0.071000   3.399412  -2.028874  -4.776351   0.717903  -2.475916  -9.750868   8.964916  -5.437727 -18.532778   0.271700 -12.566458   0.115680   3.012866   0.964293   5.395288   9.941011  -1.625799  -2.654050   4.733205   0.010294  -0.012192  -4.749140  -1.498613   0.730062  -0.242908  -0.000473   0.000133  11.105400   2.120058   2.876241   6.449917  -0.010476   0.003894  -6.082970   2.163532   0.820844   1.480627  -0.003302   0.003037
 -2.374416   0.922358   3.977353 -11.604392  -1.361401  -0.800947  10.637324   0.837764   1.032124   2.310272  -0.895347   0.400636  -1.420151   0.127595  -0.050705   0.553606   4.014416   9.998881   8.947696   9.956219  20.576127   0.199441  10.242627  -0.075269   3.868120  -1.619872  -3.731179   0.989784  -3.133255 -10.712832  10.009436  -6.483573 -21.153110   0.276345 -14.207235   0.123497   3.426058   0.347071   4.517105  10.195366  -2.062411  -3.023583   5.453240   0.010863  -0.014117  -4.847712  -1.730250   1.049375  -0.108955  -0.000156  -0.000910  11.737151   2.524525   3.422441   6.442456  -0.008357   0.003095  -6.360970   2.509308   0.830115   1.679329  -0.003314   0.003450
 -2.374079   0.918141   3.977026 -12.135006  -1.470638  -0.976896  11.072044   0.912950   1.254199   2.492967  -0.957167   0.507580  -1.606700   0.075487  -0.123447   0.654853   4.650147  10.864630   9.824539  11.323143  22.645698   0.195089  11.350298  -0.076784   4.316878  -1.203582  -2.885673   1.214167  -3.768086 -11.500029  10.935811  -7.508993 -23.504622   0.271085 -15.745946   0.126547   3.823151  -0.287598   3.827138  10.438888  -2.469984  -3.359596   6.120914   0.010890  -0.014975  -4.939008  -1.946817   1.347026   0.015555   0.000057  -0.001594  12.264264   2.905586   3.919010   6.387879  -0.006529   0.002340  -6.623142   2.831876   0.840529   1.857525  -0.003169   0.003659
 -2.373660   0.917117   3.977193 -12.825624  -2.043838  -0.650333  11.601874   1.137885   1.018578   2.771004  -0.901892   0.415137  -1.779241   0.031162  -0.208149   0.723546   5.307411  11.892064  10.581832  12.674681  24.632084   0.189667  12.390199  -0.075881   4.748321  -0.803593  -2.225722   1.424728  -4.335887 -12.355298  11.770139  -8.470764 -25.684260   0.262577 -17.154761   0.126195   4.192993  -0.777942   3.351139  10.799914  -2.825549  -4.188013   6.759563   0.010024  -0.017207  -5.011247  -2.150113   1.621751   0.212145   0.000177  -0.003168  12.903290   3.217276   3.430299   6.786609  -0.005192   0.001293  -6.878897   3.004611   0.521447   1.428956  -0.003840   0.002954
 -2.373757   0.916812   3.977509 -13.418562  -2.554403  -0.735826  12.042268   1.330397   1.164918   3.010177  -0.842443   0.445091  -1.932811  -0.010966  -0.289672   0.780287   5.912622  12.745252  11.253136  13.956638  26.448873   0.181060  13.367184  -0.072886   5.158090  -0.368435  -1.536296   1.632898  -4.847236 -13.138888  12.523157  -9.401226 -27.756490   0.250205 -18.479744   0.123798   4.540322  -1.272077   2.794670  11.010663  -3.219269  -4.360121   7.338007   0.007849  -0.018637  -5.018951  -2.371590   1.941282   0.373466  -0.000192  -0.004185  13.516315   3.520024   3.381267   7.018280  -0.004222   0.000621  -7.110383   3.219504   0.458626   1.139290  -0.003218   0.002350
